<svg width="56" height="76" viewBox="0 0 56 76" fill="none" xmlns="http://www.w3.org/2000/svg">
<g clip-path="url(#clip0_1_37)">
<path d="M20.4967 73.6403C26.8589 72.8148 31.3525 66.9814 30.527 60.6192L29.0317 49.0936L17.506 50.5889C11.1438 51.4144 6.65027 57.2478 7.4757 63.61C8.30114 69.9721 14.1346 74.4657 20.4967 73.6403Z" fill="#0ACF83"/>
<path d="M4.48498 40.5558C3.65954 34.1936 8.15312 28.3602 14.5153 27.5347L26.041 26.0394L29.0317 49.0907L17.506 50.5861C11.1438 51.4115 5.31042 46.9179 4.48498 40.5558Z" fill="#A259FF"/>
<path d="M1.49218 17.5054C0.666746 11.1432 5.16033 5.30982 11.5225 4.48438L23.0482 2.98902L26.0389 26.0404L14.5132 27.5357C8.15104 28.3612 2.31762 23.8676 1.49218 17.5054Z" fill="#F24E1E"/>
<path d="M23.0472 2.98694L34.5729 1.49158C40.9351 0.666146 46.7685 5.15973 47.5939 11.5219C48.4194 17.8841 43.9258 23.7175 37.5636 24.5429L26.038 26.0383L23.0472 2.98694Z" fill="#FF7262"/>
<path d="M50.5847 34.5761C51.4101 40.9383 46.9165 46.7717 40.5543 47.5971C34.1922 48.4226 28.3588 43.929 27.5333 37.5668C26.7079 31.2046 31.2015 25.3712 37.5636 24.5458C43.9258 23.7203 49.7592 28.2139 50.5847 34.5761Z" fill="#1ABCFE"/>
</g>
<defs>
<clipPath id="clip0_1_37">
<rect width="46.4891" height="69.7336" fill="white" transform="translate(0 5.98145) rotate(-7.39234)"/>
</clipPath>
</defs>
</svg>
