<svg width="70" height="70" viewBox="0 0 70 70" fill="none" xmlns="http://www.w3.org/2000/svg">
<g clip-path="url(#clip0_1_22)">
<path d="M53.0086 -0.00195312H16.2227C7.25965 -0.00195312 -0.00634766 7.26405 -0.00634766 16.2271V53.013C-0.00634766 61.9761 7.25965 69.2421 16.2227 69.2421H53.0086C61.9717 69.2421 69.2377 61.9761 69.2377 53.013V16.2271C69.2377 7.26405 61.9717 -0.00195312 53.0086 -0.00195312Z" fill="#242938"/>
<path d="M32.4188 8.41351C33.7494 7.65209 35.4821 7.64858 36.8112 8.41351C43.4982 12.1922 50.1872 15.9646 56.8731 19.7455C58.1308 20.4539 58.9718 21.8533 58.959 23.3023V46.0352C58.9685 47.5442 58.0443 48.9772 56.7175 49.6694C50.0525 53.4273 43.3908 57.1894 36.7268 60.9473C35.3693 61.7236 33.6017 61.6638 32.286 60.8237C30.288 59.6654 28.2864 58.5126 26.288 57.3555C25.8796 57.1121 25.4192 56.9184 25.1309 56.5224C25.386 56.1789 25.8417 56.1362 26.212 55.986C27.0459 55.7207 27.8122 55.2949 28.5782 54.8819C28.7722 54.7494 29.0086 54.8002 29.1944 54.9187C30.903 55.8984 32.5968 56.9068 34.3111 57.877C34.6768 58.0882 35.0471 57.8078 35.3598 57.6336C41.9001 53.9368 48.4486 50.2545 54.9881 46.5567C55.2304 46.4401 55.3643 46.1829 55.3446 45.9175C55.3492 38.4183 55.3456 30.9181 55.347 23.4186C55.3746 23.1179 55.2004 22.8409 54.928 22.7175C48.2863 18.977 41.6475 15.2311 35.0068 11.4897C34.8918 11.4107 34.7555 11.3682 34.6159 11.368C34.4763 11.3678 34.3399 11.4097 34.2246 11.4884C27.5837 15.2311 20.9465 18.9808 14.3056 22.7208C14.0343 22.8444 13.8522 23.1168 13.8844 23.4186C13.8858 30.9181 13.8844 38.4183 13.8844 45.9186C13.8728 46.0482 13.9013 46.1782 13.9659 46.2911C14.0305 46.404 14.1282 46.4943 14.2458 46.5499C16.0177 47.5548 17.7921 48.5526 19.5654 49.5542C20.5646 50.0916 21.791 50.4114 22.8918 49.9994C23.8629 49.651 24.5437 48.6597 24.5253 47.6286C24.5345 40.1732 24.5207 32.7168 24.5321 25.2623C24.5077 24.9314 24.8217 24.658 25.1436 24.6894C25.9951 24.6834 26.8477 24.6777 27.6992 24.6915C28.0546 24.6834 28.2991 25.0399 28.2553 25.3732C28.2518 32.8758 28.2645 40.3785 28.2496 47.881C28.2518 49.8807 27.4303 52.0564 25.5807 53.0348C23.3024 54.2149 20.4861 53.9647 18.2352 52.833C16.2866 51.8603 14.4268 50.7124 12.5128 49.6705C11.1826 48.9821 10.2629 47.5434 10.2724 46.0355V23.3023C10.2583 21.8233 11.1331 20.3984 12.4295 19.7003C19.0934 15.9397 25.7563 12.1759 32.4188 8.41351Z" fill="#81CD39"/>
<path d="M38.2299 24.1622C41.1362 23.975 44.2476 24.0513 46.8629 25.4833C48.888 26.5804 50.0105 28.8833 50.0463 31.1329C49.9897 31.4361 49.6724 31.6035 49.3828 31.5827C48.5397 31.5816 47.696 31.5943 46.8529 31.577C46.4951 31.5908 46.2873 31.2611 46.2424 30.9449C46.0001 29.8684 45.4129 28.8024 44.3999 28.2831C42.8446 27.5046 41.0416 27.5438 39.3456 27.5601C38.1076 27.6255 36.7763 27.7329 35.7273 28.4608C34.9221 29.0123 34.6776 30.1256 34.9649 31.0223C35.2359 31.666 35.9789 31.8737 36.5872 32.0652C40.0897 32.9814 43.8013 32.8899 47.237 34.0955C48.6595 34.587 50.0509 35.5426 50.5377 37.0319C51.1747 39.028 50.8956 41.4137 49.4753 43.0161C48.3235 44.3347 46.6463 45.0526 44.9733 45.4423C42.7478 45.9387 40.4381 45.9514 38.1779 45.7309C36.0527 45.4886 33.841 44.9303 32.2005 43.4824C30.7975 42.2641 30.1124 40.3659 30.1803 38.5341C30.1965 38.2247 30.5046 38.0089 30.801 38.0343C31.6501 38.0275 32.4994 38.0251 33.3484 38.0356C33.6879 38.0113 33.9392 38.3045 33.9568 38.6242C34.1131 39.6496 34.4985 40.7262 35.393 41.3339C37.1187 42.4475 39.2845 42.3712 41.2606 42.4023C42.8979 42.3299 44.7358 42.3079 46.0718 41.2257C46.7766 40.6085 46.9855 39.5758 46.795 38.6875C46.5886 37.9375 45.804 37.588 45.1302 37.3594C41.6726 36.2659 37.9194 36.6627 34.4953 35.4257C33.105 34.9345 31.7607 34.0057 31.2268 32.5775C30.4816 30.5562 30.8229 28.0558 32.392 26.5079C33.9219 24.9675 36.1301 24.3743 38.2299 24.1622Z" fill="#81CD39"/>
</g>
<defs>
<clipPath id="clip0_1_22">
<rect width="69.244" height="69.244" fill="white"/>
</clipPath>
</defs>
</svg>
