<svg width="79" height="79" viewBox="0 0 79 79" fill="none" xmlns="http://www.w3.org/2000/svg">
<g clip-path="url(#clip0_1_27)">
<path d="M62.689 7.92038L26.2663 2.76447C17.3917 1.50821 9.17899 7.68408 7.92272 16.5587L2.76682 52.9814C1.51055 61.856 7.68643 70.0687 16.561 71.325L52.9838 76.4809C61.8584 77.7371 70.0711 71.5613 71.3273 62.6867L76.4832 26.2639C77.7395 17.3893 71.5636 9.17664 62.689 7.92038Z" fill="#0277BD"/>
<path d="M20.7006 30.0204L20.2561 38.6835L39.3998 41.3934L40.6107 32.8389L20.7006 30.0204ZM43.0614 15.5243L21.6108 12.4879L21.1776 21.1525L41.8505 24.0789L43.0614 15.5243ZM36.2056 63.9562L37.4655 55.0559L37.4266 55.0605L28.2635 51.1395L28.6203 44.2304L20.0328 43.0148L19.3299 56.6164L36.1646 63.9616L36.2056 63.9562Z" fill="#EBEBEB"/>
<path d="M49.9045 42.881L47.341 53.8349L37.4355 55.0596L36.1757 63.9593L54.401 61.5816L54.7342 60.1544L59.9324 37.9179L60.4662 35.6501L64.4617 18.5543L43.0325 15.5208L41.8216 24.0753L53.8756 25.7817L51.8573 34.4315L40.5815 32.8353L39.3706 41.3898L49.9045 42.881Z" fill="white"/>
</g>
<defs>
<clipPath id="clip0_1_27">
<rect width="69.244" height="69.244" fill="white" transform="translate(10.1953 0.489136) rotate(8.0571)"/>
</clipPath>
</defs>
</svg>
