<svg width="93" height="93" viewBox="0 0 93 93" fill="none" xmlns="http://www.w3.org/2000/svg">
<g clip-path="url(#clip0_1_32)">
<path d="M16.6694 65.8102L26.4098 7.1062L82.6257 21.6615L62.6486 77.7053L37.977 78.1273L16.6694 65.8102Z" fill="#E44F26"/>
<path d="M39.2777 73.2591L59.215 72.9183L76.2847 25.0259L53.3066 19.0764L39.2777 73.2591Z" fill="#F1662A"/>
<path d="M47.7975 40.3556L38.4851 37.9445L39.7089 30.5719L49.6634 33.1493L51.4856 26.1115L33.8398 21.5427L33.519 23.4761L30.2262 43.3157L45.9753 47.3934L47.7975 40.3556ZM43.0654 58.632L43.0312 58.6329L35.7419 54.4885L36.6942 48.7464L29.629 46.9171L27.7546 58.2197L41.1353 65.9553L41.1695 65.9544L43.0654 58.632Z" fill="#EBEBEB"/>
<path d="M47.7682 40.35L45.946 47.3878L54.6117 49.6316L51.4332 58.5485L43.0343 58.6333L41.1384 65.9557L56.6027 65.691L57.0152 64.5296L63.4651 46.4308L64.1275 44.5858L47.7682 40.35ZM51.4562 26.106L49.634 33.1438L66.6331 37.5451L67.1834 36.0015L68.4282 32.5168L69.086 30.6706L51.4562 26.106Z" fill="white"/>
</g>
<defs>
<clipPath id="clip0_1_32">
<rect width="75.2624" height="75.2624" fill="white" transform="translate(19.2656 0.399719) rotate(14.5161)"/>
</clipPath>
</defs>
</svg>
